<mxfile host="65bd71144e">
    <diagram name="PÃ¡gina-1" id="H5xfOcXILhlzlC3MEp8S">
        <mxGraphModel dx="863" dy="867" grid="1" gridSize="10" guides="1" tooltips="1" connect="1" arrows="1" fold="1" page="1" pageScale="1" pageWidth="827" pageHeight="1169" math="0" shadow="0">
            <root>
                <mxCell id="0"/>
                <mxCell id="1" parent="0"/>
                <mxCell id="23" value="" style="rounded=0;whiteSpace=wrap;html=1;" parent="1" vertex="1">
                    <mxGeometry x="140" y="80" width="620" height="350" as="geometry"/>
                </mxCell>
                <mxCell id="KfgiDUAFI2g06yitJ3mN-1" value="Melmac Performance Testing Framework" style="shape=folder;fontStyle=1;spacingTop=10;tabWidth=40;tabHeight=14;tabPosition=left;html=1;whiteSpace=wrap;align=center;verticalAlign=top;fillColor=#dae8fc;strokeColor=#6c8ebf;" parent="1" vertex="1">
                    <mxGeometry x="190" y="130" width="520" height="250" as="geometry"/>
                </mxCell>
                <mxCell id="7" style="edgeStyle=none;html=1;entryX=0;entryY=0;entryDx=0;entryDy=77;entryPerimeter=0;exitX=0;exitY=0;exitDx=150;exitDy=77;exitPerimeter=0;strokeColor=default;dashed=1;dashPattern=12 12;" parent="1" source="3" target="5" edge="1">
                    <mxGeometry relative="1" as="geometry">
                        <Array as="points"/>
                    </mxGeometry>
                </mxCell>
                <mxCell id="3" value="MelmacBE" style="shape=folder;fontStyle=1;spacingTop=10;tabWidth=40;tabHeight=14;tabPosition=left;html=1;whiteSpace=wrap;verticalAlign=top;fillColor=#dae8fc;strokeColor=#6c8ebf;" parent="1" vertex="1">
                    <mxGeometry x="230" y="200" width="150" height="140" as="geometry"/>
                </mxCell>
                <mxCell id="5" value="DriverRunner (iOS)" style="shape=folder;fontStyle=1;spacingTop=10;tabWidth=40;tabHeight=14;tabPosition=left;html=1;whiteSpace=wrap;verticalAlign=top;fillColor=#dae8fc;strokeColor=#6c8ebf;" parent="1" vertex="1">
                    <mxGeometry x="480" y="200" width="144" height="140" as="geometry"/>
                </mxCell>
                <mxCell id="18" value="Untitled Layer" parent="0"/>
                <mxCell id="11" value="Untitled Layer" parent="0"/>
            </root>
        </mxGraphModel>
    </diagram>
</mxfile>